<svg xmlns="http://www.w3.org/2000/svg" viewBox="0 0 64 64" shape-rendering="crispEdges">
  <defs>
    <linearGradient id="sky" x1="0" y1="0" x2="0" y2="1">
      <stop offset="0" stop-color="#14042e"/>
      <stop offset="0.55" stop-color="#c8386a"/>
      <stop offset="1" stop-color="#ffe08a"/>
    </linearGradient>
  </defs>
  <rect width="64" height="64" fill="url(#sky)"/>
  <!-- hills -->
  <path d="M0 44 L8 38 L16 41 L24 34 L32 40 L40 30 L48 37 L56 33 L64 39 L64 64 L0 64 Z" fill="#26a026"/>
  <path d="M0 50 L10 47 L20 51 L30 46 L40 50 L50 45 L64 49 L64 64 L0 64 Z" fill="#155f15"/>
  <!-- explosion -->
  <circle cx="47" cy="22" r="9" fill="#ff2020"/>
  <circle cx="47" cy="22" r="7" fill="#ff7a00"/>
  <circle cx="47" cy="22" r="5" fill="#ffe040"/>
  <circle cx="47" cy="22" r="2.5" fill="#ffffff"/>
  <!-- tank -->
  <rect x="9" y="37" width="14" height="3" fill="#ff5555"/>
  <rect x="11" y="34" width="10" height="3" fill="#ff5555"/>
  <rect x="13" y="32" width="6" height="2" fill="#ff5555"/>
  <rect x="10" y="40" width="12" height="2" fill="#8a2a2a"/>
  <path d="M17 34 L27 25" stroke="#ff5555" stroke-width="2" stroke-linecap="square"/>
  <!-- shell trail -->
  <circle cx="30" cy="20" r="1" fill="#fff"/>
  <circle cx="34" cy="17.5" r="1" fill="#fff"/>
  <circle cx="38" cy="16.5" r="1" fill="#fff"/>
  <circle cx="42" cy="17.5" r="1" fill="#fff"/>
</svg>
